<?xml version="1.0" encoding="iso-8859-1"?>
<!-- Generator: Adobe Illustrator 19.0.0, SVG Export Plug-In . SVG Version: 6.00 Build 0)  -->
<svg version="1.1" id="Capa_1" xmlns="http://www.w3.org/2000/svg" xmlns:xlink="http://www.w3.org/1999/xlink" x="0px" y="0px"
	 viewBox="0 0 512 512" style="enable-background:new 0 0 512 512;" xml:space="preserve">
<g>
	<path style="fill:#95A5A5;" d="M394.847,164.881H117.153c-4.793,0-8.678-3.885-8.678-8.678c0-4.793,3.885-8.678,8.678-8.678
		h277.695c4.793,0,8.678,3.885,8.678,8.678C403.525,160.996,399.64,164.881,394.847,164.881z"/>
	<path style="fill:#CC6F56;" d="M117.153,138.847v17.356c0.009,6.907-2.731,13.535-7.615,18.419
		c-4.884,4.884-11.511,7.624-18.419,7.615H30.373c-6.907,0.009-13.535-2.731-18.419-7.615c-4.884-4.884-7.624-11.511-7.615-18.419
		v-17.356c0.014-4.787,3.891-8.664,8.678-8.678h95.458C113.261,130.184,117.138,134.061,117.153,138.847z"/>
	<rect x="47.729" y="130.169" style="fill:#CB9080;" width="17.356" height="52.068"/>
	<path style="fill:#CC6F56;" d="M507.661,138.847v17.356c0.009,6.907-2.731,13.535-7.615,18.419
		c-4.884,4.884-11.511,7.624-18.419,7.615h-60.746c-6.907,0.009-13.535-2.731-18.419-7.615c-4.884-4.884-7.624-11.511-7.615-18.419
		v-17.356c0.014-4.787,3.891-8.664,8.678-8.678h95.458C503.77,130.184,507.647,134.061,507.661,138.847L507.661,138.847z"/>
	<rect x="446.915" y="130.169" style="fill:#CB9080;" width="17.356" height="52.068"/>
	<g>
		<path style="fill:#95A5A5;" d="M151.864,512c-3.509-0.001-6.673-2.115-8.016-5.357c-1.343-3.242-0.601-6.974,1.88-9.456
			l47.237-47.237c2.192-2.192,5.387-3.048,8.381-2.246c2.994,0.802,5.333,3.141,6.136,6.136c0.802,2.994-0.054,6.189-2.246,8.381
			L158,509.457C156.374,511.088,154.166,512.003,151.864,512L151.864,512z"/>
		<path style="fill:#95A5A5;" d="M360.136,512c-2.302,0.003-4.51-0.912-6.135-2.543l-47.237-47.237
			c-3.389-3.389-3.389-8.883,0-12.271c3.389-3.389,8.883-3.389,12.271,0l47.237,47.238c2.481,2.482,3.223,6.214,1.88,9.456
			C366.808,509.885,363.645,511.999,360.136,512z"/>
	</g>
	<path style="fill:#CC6F56;" d="M229.793,433.898h-25.86c-9.557,0.069-17.287,7.799-17.356,17.356
		c0.028,9.574,7.782,17.328,17.356,17.356h104.136c9.557-0.069,17.287-7.799,17.356-17.356c-0.028-9.574-7.782-17.328-17.356-17.356
		H229.793L229.793,433.898z"/>
	<path style="fill:#804537;" d="M368.814,134.508c0,55.973-28.637,148.22-69.424,190.395h-86.78
		c-40.786-42.175-69.424-134.422-69.424-190.395c0-1.475,0-2.864,0.087-4.339c0.107-5.808,0.571-11.604,1.388-17.356
		c6.769-50.159,36.881-91.032,76.626-106.305c22.328-8.678,47.096-8.678,69.424,0c39.745,15.273,69.858,56.146,76.626,106.305
		c0.817,5.751,1.281,11.548,1.388,17.356C368.814,131.645,368.814,133.033,368.814,134.508z"/>
	<g>
		<path style="fill:#CC6F56;" d="M290.712,6.508v93.288h-69.424V6.508C243.616-2.169,268.384-2.169,290.712,6.508z"/>
		<path style="fill:#CC6F56;" d="M212.61,121.492c-0.014,4.787-3.891,8.664-8.678,8.678h-60.659
			c0.107-5.808,0.571-11.604,1.388-17.356h59.271C208.719,112.828,212.596,116.705,212.61,121.492z"/>
		<path style="fill:#CC6F56;" d="M368.727,130.169h-60.659c-4.793,0-8.678-3.885-8.678-8.678s3.885-8.678,8.678-8.678h59.271
			C368.156,118.565,368.619,124.361,368.727,130.169L368.727,130.169z"/>
	</g>
	<path style="fill:#95A5A5;" d="M299.39,236.995v109.342c-0.011,6.272-0.68,12.525-1.996,18.658l-28.203,127.74
		c-1.371,6.185-6.855,10.587-13.191,10.587s-11.82-4.402-13.191-10.587l-28.203-127.74c-1.316-6.132-1.985-12.386-1.996-18.658
		V236.995"/>
	<path style="fill:#7F8C8D;" d="M256,407.864c-4.793,0-8.678-3.885-8.678-8.678V260.339c0-4.793,3.885-8.678,8.678-8.678
		c4.793,0,8.678,3.885,8.678,8.678v138.847C264.678,403.979,260.793,407.864,256,407.864z"/>
	<path style="fill:#90BAE1;" d="M256,78.102L256,78.102c28.756,0,52.068,23.312,52.068,52.068v78.102
		c0,28.756-23.312,52.068-52.068,52.068l0,0c-28.756,0-52.068-23.312-52.068-52.068v-78.102
		C203.932,101.413,227.244,78.102,256,78.102z"/>
	<g>
		<path style="fill:#B0D3F0;" d="M273.356,130.169c-2.308,0.022-4.529-0.885-6.161-2.517c-1.632-1.632-2.539-3.853-2.517-6.161
			c0.012-1.135,0.247-2.256,0.691-3.301c0.42-1.062,1.04-2.033,1.826-2.861c3.479-3.212,8.843-3.212,12.322,0
			c0.784,0.829,1.402,1.8,1.822,2.86c0.487,1.031,0.725,2.162,0.695,3.301c-0.035,2.297-0.933,4.497-2.517,6.161
			c-0.436,0.347-0.869,0.695-1.301,1.038c-0.484,0.33-1.01,0.593-1.564,0.784c-0.493,0.249-1.02,0.425-1.564,0.521
			C274.516,130.092,273.937,130.15,273.356,130.169L273.356,130.169z"/>
		<path style="fill:#B0D3F0;" d="M273.356,225.627c-4.793,0-8.678-3.885-8.678-8.678v-60.746c0-4.793,3.885-8.678,8.678-8.678
			c4.793,0,8.678,3.885,8.678,8.678v60.746C282.034,221.742,278.149,225.627,273.356,225.627z"/>
	</g>
</g>
<g>
</g>
<g>
</g>
<g>
</g>
<g>
</g>
<g>
</g>
<g>
</g>
<g>
</g>
<g>
</g>
<g>
</g>
<g>
</g>
<g>
</g>
<g>
</g>
<g>
</g>
<g>
</g>
<g>
</g>
</svg>
